<?xml version="1.0" encoding="UTF-8"?>
<svg xmlns="http://www.w3.org/2000/svg" width="1600" height="900" viewBox="0 0 1600 900" role="img" aria-labelledby="bg-hero-title bg-hero-desc">
<title id="bg-hero-title">Hero background — deep space</title>
<desc id="bg-hero-desc">Wide deep-space backdrop: indigo gradient, seeded starfield, faint gold constellations, and a soft vignette.</desc>
<defs><linearGradient id="bg-hero-sky" x1="0" y1="0" x2="0" y2="1"><stop offset="0" stop-color="#0a0e1a"/><stop offset="0.55" stop-color="#1a1440"/><stop offset="1" stop-color="#2b2a6b"/></linearGradient></defs>
<rect width="1600" height="900" fill="url(#bg-hero-sky)"/>
<circle cx="975.1" cy="18" r="1.9" fill="#f5f0e1" opacity="0.4"/><circle cx="110.5" cy="296.9" r="0.6" fill="#f5f0e1" opacity="0.4"/><circle cx="1036.8" cy="501.6" r="2.1" fill="#f5f0e1" opacity="0.6"/><circle cx="1248.7" cy="245.3" r="2.2" fill="#f5f0e1" opacity="0.8"/><circle cx="1511.6" cy="139.8" r="1.6" fill="#f5f0e1" opacity="0.9"/><circle cx="956.4" cy="478.8" r="2" fill="#f5f0e1" opacity="0.6"/><circle cx="1349.9" cy="308.1" r="2.1" fill="#f5f0e1" opacity="0.6"/><circle cx="163.9" cy="447.4" r="1.4" fill="#f5f0e1" opacity="0.5"/><circle cx="1232.2" cy="300" r="0.9" fill="#f5f0e1" opacity="0.4"/><circle cx="243.9" cy="706.3" r="2" fill="#f5f0e1" opacity="0.8"/><circle cx="58.5" cy="241.5" r="1.3" fill="#f5f0e1" opacity="0.5"/><circle cx="390.7" cy="562.2" r="0.5" fill="#f5f0e1" opacity="0.6"/><circle cx="466.2" cy="388" r="1.8" fill="#f5f0e1" opacity="0.6"/><circle cx="820.3" cy="72.7" r="1.6" fill="#f5f0e1" opacity="0.4"/><circle cx="348.4" cy="757.2" r="0.4" fill="#f5f0e1" opacity="0.8"/><circle cx="959.5" cy="600" r="1.8" fill="#f5f0e1" opacity="0.8"/><circle cx="1188.5" cy="137.1" r="1.7" fill="#f5f0e1" opacity="0.9"/><circle cx="825.1" cy="865.6" r="2" fill="#f5f0e1" opacity="0.7"/><circle cx="1504.2" cy="595.4" r="2" fill="#f5f0e1" opacity="0.4"/><circle cx="408.2" cy="624.7" r="1.2" fill="#f5f0e1" opacity="0.6"/><circle cx="1463.8" cy="662.7" r="0.9" fill="#f5f0e1" opacity="0.5"/><circle cx="45.3" cy="720.8" r="1" fill="#f5f0e1" opacity="0.8"/><circle cx="1550.5" cy="655.2" r="1.8" fill="#f5f0e1" opacity="0.4"/><circle cx="1500.7" cy="30.6" r="1.2" fill="#f5f0e1" opacity="0.7"/><circle cx="1005.3" cy="691.2" r="2.2" fill="#f5f0e1" opacity="0.6"/><circle cx="1206.5" cy="165.6" r="2" fill="#f5f0e1" opacity="0.8"/><circle cx="751.5" cy="436.6" r="0.5" fill="#f5f0e1" opacity="0.5"/><circle cx="1451.1" cy="750.4" r="0.4" fill="#f5f0e1" opacity="0.4"/><circle cx="336.8" cy="131.2" r="1.9" fill="#f5f0e1" opacity="0.7"/><circle cx="815.7" cy="547.7" r="1.1" fill="#f5f0e1" opacity="0.9"/><circle cx="999.5" cy="736.6" r="0.7" fill="#f5f0e1" opacity="0.7"/><circle cx="1336.3" cy="344.4" r="1.1" fill="#f5f0e1" opacity="0.7"/><circle cx="75.5" cy="406.3" r="2.1" fill="#f5f0e1" opacity="0.8"/><circle cx="764.4" cy="380.8" r="0.9" fill="#f5f0e1" opacity="0.6"/><circle cx="532.2" cy="398" r="1.9" fill="#f5f0e1" opacity="0.7"/><circle cx="171.1" cy="148.5" r="1.1" fill="#f5f0e1" opacity="0.8"/><circle cx="1570.5" cy="55.7" r="1.2" fill="#f5f0e1" opacity="0.4"/><circle cx="768.4" cy="317.1" r="1.3" fill="#f5f0e1" opacity="0.9"/><circle cx="690.3" cy="355.5" r="2.2" fill="#f5f0e1" opacity="0.5"/><circle cx="1030.9" cy="254" r="0.6" fill="#f5f0e1" opacity="0.8"/><circle cx="1375" cy="231.6" r="2.2" fill="#f5f0e1" opacity="0.8"/><circle cx="1131.9" cy="701.2" r="0.9" fill="#f5f0e1" opacity="0.8"/><circle cx="65.6" cy="545.1" r="1.9" fill="#f5f0e1" opacity="0.9"/><circle cx="396.9" cy="442.7" r="2.2" fill="#f5f0e1" opacity="0.8"/><circle cx="729.3" cy="79.7" r="1.2" fill="#f5f0e1" opacity="0.9"/><circle cx="1353.1" cy="46.1" r="1.7" fill="#f5f0e1" opacity="0.8"/><circle cx="1254.6" cy="460.7" r="1.7" fill="#f5f0e1" opacity="0.5"/><circle cx="1225.8" cy="240.4" r="1.3" fill="#f5f0e1" opacity="0.4"/><circle cx="376" cy="439.6" r="1.7" fill="#f5f0e1" opacity="0.7"/><circle cx="1352.8" cy="419.2" r="1.5" fill="#f5f0e1" opacity="0.4"/><circle cx="456.1" cy="662.1" r="1.6" fill="#f5f0e1" opacity="0.7"/><circle cx="1256.6" cy="530.9" r="0.8" fill="#f5f0e1" opacity="0.5"/><circle cx="990.4" cy="426.3" r="2" fill="#f5f0e1" opacity="0.3"/><circle cx="222.8" cy="587.2" r="1.6" fill="#f5f0e1" opacity="0.6"/><circle cx="5.3" cy="672.5" r="2.1" fill="#f5f0e1" opacity="0.9"/><circle cx="686.2" cy="219.2" r="2.2" fill="#f5f0e1" opacity="0.6"/><circle cx="1221.9" cy="740.1" r="2.1" fill="#f5f0e1" opacity="0.4"/><circle cx="986.5" cy="884.5" r="1.5" fill="#f5f0e1" opacity="0.4"/><circle cx="550.7" cy="14.8" r="0.9" fill="#f5f0e1" opacity="0.3"/><circle cx="123.7" cy="704.6" r="1.5" fill="#f5f0e1" opacity="0.8"/><circle cx="150.6" cy="695" r="1.1" fill="#f5f0e1" opacity="0.5"/><circle cx="1148.9" cy="430.2" r="1.1" fill="#f5f0e1" opacity="0.5"/><circle cx="359.3" cy="173.3" r="1" fill="#f5f0e1" opacity="0.9"/><circle cx="1039.5" cy="735.4" r="1.9" fill="#f5f0e1" opacity="0.6"/><circle cx="586.9" cy="808.2" r="1.9" fill="#f5f0e1" opacity="0.8"/><circle cx="1561.3" cy="644" r="0.5" fill="#f5f0e1" opacity="0.3"/><circle cx="1111.3" cy="413" r="0.4" fill="#f5f0e1" opacity="0.8"/><circle cx="105.4" cy="130.5" r="2" fill="#f5f0e1" opacity="0.8"/><circle cx="17.3" cy="187.9" r="1.4" fill="#f5f0e1" opacity="0.4"/><circle cx="367.7" cy="793.5" r="1" fill="#f5f0e1" opacity="0.7"/><circle cx="63.4" cy="837.5" r="1.6" fill="#f5f0e1" opacity="0.6"/><circle cx="625.3" cy="678.3" r="2.2" fill="#f5f0e1" opacity="0.7"/><circle cx="753.4" cy="400.2" r="0.9" fill="#f5f0e1" opacity="0.9"/><circle cx="1449.5" cy="104.9" r="1.5" fill="#f5f0e1" opacity="0.6"/><circle cx="65.2" cy="366.4" r="1.1" fill="#f5f0e1" opacity="0.8"/><circle cx="787.4" cy="745" r="1.9" fill="#f5f0e1" opacity="0.5"/><circle cx="413.3" cy="491.6" r="0.5" fill="#f5f0e1" opacity="0.5"/><circle cx="1511.3" cy="107.5" r="1.5" fill="#f5f0e1" opacity="0.4"/><circle cx="22" cy="889.3" r="1" fill="#f5f0e1" opacity="0.6"/><circle cx="808.8" cy="278.6" r="2.2" fill="#f5f0e1" opacity="0.9"/><circle cx="544.8" cy="100.9" r="1.3" fill="#f5f0e1" opacity="0.4"/><circle cx="1461.2" cy="627" r="1.3" fill="#f5f0e1" opacity="0.5"/><circle cx="836.3" cy="822.4" r="2" fill="#f5f0e1" opacity="0.7"/><circle cx="480.1" cy="878.2" r="1.6" fill="#f5f0e1" opacity="0.4"/><circle cx="1122.6" cy="761.4" r="1.8" fill="#f5f0e1" opacity="0.3"/><circle cx="187.6" cy="534.8" r="0.6" fill="#f5f0e1" opacity="0.4"/><circle cx="60.6" cy="224.7" r="1.8" fill="#f5f0e1" opacity="0.8"/><circle cx="732.2" cy="880.4" r="0.8" fill="#f5f0e1" opacity="0.7"/><circle cx="1438.7" cy="594.3" r="2" fill="#f5f0e1" opacity="0.5"/><circle cx="1487.3" cy="226.7" r="1.1" fill="#f5f0e1" opacity="0.9"/><circle cx="1368.5" cy="51.9" r="1.1" fill="#f5f0e1" opacity="0.4"/><circle cx="243.7" cy="385.7" r="1" fill="#f5f0e1" opacity="0.3"/><circle cx="643.7" cy="81.8" r="0.9" fill="#f5f0e1" opacity="0.5"/><circle cx="213.3" cy="643.5" r="1.6" fill="#f5f0e1" opacity="0.8"/><circle cx="1147.7" cy="25" r="1.7" fill="#f5f0e1" opacity="0.5"/><circle cx="1538.1" cy="397.8" r="2.2" fill="#f5f0e1" opacity="0.8"/><circle cx="797.3" cy="495.1" r="2.2" fill="#f5f0e1" opacity="0.4"/><circle cx="292.6" cy="51.2" r="1.6" fill="#f5f0e1" opacity="0.7"/><circle cx="859.7" cy="521.9" r="1.4" fill="#f5f0e1" opacity="0.6"/><circle cx="435.9" cy="113.1" r="0.6" fill="#f5f0e1" opacity="0.9"/><circle cx="858.3" cy="850.5" r="1.1" fill="#f5f0e1" opacity="0.8"/><circle cx="1421" cy="470.9" r="2.1" fill="#f5f0e1" opacity="0.6"/><circle cx="1254.7" cy="731.6" r="1.4" fill="#f5f0e1" opacity="0.5"/><circle cx="1503.3" cy="395.8" r="0.5" fill="#f5f0e1" opacity="0.5"/><circle cx="721.8" cy="716.4" r="2.1" fill="#f5f0e1" opacity="0.5"/><circle cx="4.3" cy="547.6" r="1.6" fill="#f5f0e1" opacity="0.3"/><circle cx="1127.8" cy="118.5" r="2" fill="#f5f0e1" opacity="0.5"/><circle cx="1251" cy="699.9" r="0.6" fill="#f5f0e1" opacity="0.9"/><circle cx="1487.2" cy="290.6" r="1.8" fill="#f5f0e1" opacity="0.8"/><circle cx="1409.8" cy="129.4" r="2.1" fill="#f5f0e1" opacity="0.5"/><circle cx="4.4" cy="69.3" r="1.7" fill="#f5f0e1" opacity="0.5"/><circle cx="172.2" cy="846.9" r="0.5" fill="#f5f0e1" opacity="0.7"/><circle cx="293.4" cy="498.3" r="1.1" fill="#f5f0e1" opacity="0.4"/><circle cx="512.8" cy="74.9" r="1.6" fill="#f5f0e1" opacity="0.7"/><circle cx="1181.1" cy="65.4" r="1.8" fill="#f5f0e1" opacity="0.5"/><circle cx="1139.1" cy="825" r="1.4" fill="#f5f0e1" opacity="0.8"/><circle cx="1571.1" cy="64" r="1.3" fill="#f5f0e1" opacity="0.7"/><circle cx="794.8" cy="601.5" r="1.6" fill="#f5f0e1" opacity="0.4"/><circle cx="296.4" cy="579.9" r="0.9" fill="#f5f0e1" opacity="0.6"/><circle cx="249.8" cy="765.4" r="0.4" fill="#f5f0e1" opacity="0.4"/><circle cx="284.8" cy="105.3" r="0.7" fill="#f5f0e1" opacity="0.3"/><circle cx="26.5" cy="525.9" r="1.2" fill="#f5f0e1" opacity="0.7"/><circle cx="32.3" cy="795.4" r="1.8" fill="#f5f0e1" opacity="0.9"/><circle cx="140.6" cy="207.8" r="1.3" fill="#f5f0e1" opacity="0.8"/><circle cx="1581.5" cy="139.3" r="2" fill="#f5f0e1" opacity="0.3"/><circle cx="583.2" cy="825" r="0.8" fill="#f5f0e1" opacity="0.8"/><circle cx="779.6" cy="136.9" r="0.9" fill="#f5f0e1" opacity="0.7"/><circle cx="1103.7" cy="684.2" r="1.8" fill="#f5f0e1" opacity="0.9"/><circle cx="514.8" cy="76.9" r="1.5" fill="#f5f0e1" opacity="0.3"/><circle cx="1269.8" cy="277.6" r="2" fill="#f5f0e1" opacity="0.3"/><circle cx="1489" cy="56.8" r="1.4" fill="#f5f0e1" opacity="0.8"/><circle cx="506.7" cy="647.3" r="1.7" fill="#f5f0e1" opacity="0.5"/><circle cx="710.7" cy="769.5" r="1.5" fill="#f5f0e1" opacity="0.9"/><circle cx="618.9" cy="545.7" r="1.7" fill="#f5f0e1" opacity="0.5"/><circle cx="774" cy="409.7" r="0.5" fill="#f5f0e1" opacity="0.7"/><circle cx="1305.3" cy="741.8" r="2" fill="#f5f0e1" opacity="0.7"/><circle cx="484.8" cy="679.7" r="1.8" fill="#f5f0e1" opacity="0.7"/><circle cx="1131.4" cy="159.2" r="1.9" fill="#f5f0e1" opacity="0.7"/><circle cx="502.4" cy="136.2" r="1.3" fill="#f5f0e1" opacity="0.8"/><circle cx="1486" cy="129.1" r="1.1" fill="#f5f0e1" opacity="0.7"/><circle cx="801.4" cy="221.4" r="1.6" fill="#f5f0e1" opacity="0.6"/><circle cx="944" cy="326.4" r="0.5" fill="#f5f0e1" opacity="0.5"/><circle cx="462.5" cy="449.9" r="1.1" fill="#f5f0e1" opacity="0.7"/><circle cx="1442.7" cy="776.4" r="1.5" fill="#f5f0e1" opacity="0.7"/><circle cx="150.2" cy="564.4" r="2.1" fill="#f5f0e1" opacity="0.4"/><circle cx="1006" cy="481.1" r="2" fill="#f5f0e1" opacity="0.7"/><circle cx="1021" cy="786" r="0.7" fill="#f5f0e1" opacity="0.8"/><circle cx="1263.5" cy="293.7" r="1.3" fill="#f5f0e1" opacity="0.6"/><circle cx="982.9" cy="579.3" r="2.1" fill="#f5f0e1" opacity="0.7"/><circle cx="797.4" cy="2.8" r="1.5" fill="#f5f0e1" opacity="0.4"/>
<g id="bg-hero-con1"><polyline points="220,180 300,140 380,190 340,270 250,260" fill="none" stroke="#d4af37" stroke-width="1" opacity="0.14"/><circle cx="220" cy="180" r="2" fill="#f5f0e1" opacity="0.7"/><circle cx="300" cy="140" r="2" fill="#f5f0e1" opacity="0.7"/><circle cx="380" cy="190" r="2" fill="#f5f0e1" opacity="0.7"/><circle cx="340" cy="270" r="2" fill="#f5f0e1" opacity="0.7"/><circle cx="250" cy="260" r="2" fill="#f5f0e1" opacity="0.7"/></g>
<g id="bg-hero-con2"><polyline points="1180,220 1260,180 1340,230 1300,310 1210,300" fill="none" stroke="#d4af37" stroke-width="1" opacity="0.14"/><circle cx="1180" cy="220" r="2" fill="#f5f0e1" opacity="0.7"/><circle cx="1260" cy="180" r="2" fill="#f5f0e1" opacity="0.7"/><circle cx="1340" cy="230" r="2" fill="#f5f0e1" opacity="0.7"/><circle cx="1300" cy="310" r="2" fill="#f5f0e1" opacity="0.7"/><circle cx="1210" cy="300" r="2" fill="#f5f0e1" opacity="0.7"/></g>
<g id="bg-hero-con3"><polyline points="700,640 780,600 860,650 820,730 730,720" fill="none" stroke="#d4af37" stroke-width="1" opacity="0.14"/><circle cx="700" cy="640" r="2" fill="#f5f0e1" opacity="0.7"/><circle cx="780" cy="600" r="2" fill="#f5f0e1" opacity="0.7"/><circle cx="860" cy="650" r="2" fill="#f5f0e1" opacity="0.7"/><circle cx="820" cy="730" r="2" fill="#f5f0e1" opacity="0.7"/><circle cx="730" cy="720" r="2" fill="#f5f0e1" opacity="0.7"/></g>
<path d="M1330 580 L1372.4 682.4 L1270 640 L1372.4 597.6 L1330 700 L1287.6 597.6 L1390 640 L1287.6 682.4 Z" fill="none" stroke="#d4af37" stroke-width="2" opacity="0.18" stroke-linejoin="round"/>
<defs><radialGradient id="bg-hero-vig" cx="50%" cy="46%" r="75%"><stop offset="0.55" stop-color="#05070f" stop-opacity="0"/><stop offset="1" stop-color="#05070f" stop-opacity="0.6"/></radialGradient></defs><rect width="1600" height="900" fill="url(#bg-hero-vig)"/>
</svg>
