<?xml version="1.0" encoding="UTF-8"?>
<svg xmlns="http://www.w3.org/2000/svg" width="200" height="320" viewBox="0 0 200 320" role="img" aria-labelledby="tar-18-title tar-18-desc">
<title id="tar-18-title">XVIII · The Moon — tarot</title>
<desc id="tar-18-desc">Tarot major arcana XVIII, The Moon. Keywords: dreams · uncertainty · the unseen. An archetypal mirror, not a prediction.</desc>
<defs><linearGradient id="tar-18-sky" x1="0" y1="0" x2="0" y2="1"><stop offset="0" stop-color="#0a0e2b"/><stop offset="1" stop-color="#2b2b5a"/></linearGradient></defs>
<rect width="200" height="320" rx="16" fill="url(#tar-18-sky)"/>
<path d="M 100 62 A 36 36 0 1 0 100 134 A 57.6 57.6 0 1 1 100 62 Z" fill="#f5f0e1"/>
<path d="M0 279.3 L28.6 258.1 L57.1 251.1 L85.7 256.9 L114.3 253.7 L142.9 243.7 L171.4 243 L200 241.6 L200 322 L0 322 Z" fill="#0c0f24" opacity="0.95"/>
<rect x="52" y="204" width="22" height="52" fill="#141838" stroke="#d4af37" stroke-width="1"/><rect x="126" y="204" width="22" height="52" fill="#141838" stroke="#d4af37" stroke-width="1"/><path d="M100 152 C60 182 140 212 100 250" fill="none" stroke="#e8c66a" stroke-width="2.5"/><path d="M84 264 A20 18 0 0 1 116 264" fill="none" stroke="#5eead4" stroke-width="2"/><path d="M36 258 L29 270 L43 270 Z" fill="#d4af37" opacity="0.8"/><path d="M164 258 L157 270 L171 270 Z" fill="#d4af37" opacity="0.8"/>
<rect x="6" y="6" width="188" height="308" rx="16" fill="none" stroke="#d4af37" stroke-width="2.5"/>
<rect x="13" y="13" width="174" height="294" rx="12" fill="none" stroke="#d4af37" stroke-width="1" opacity="0.5"/>
<text x="103" y="36" text-anchor="middle" font-family="Alegreya, Georgia, serif" font-size="20" letter-spacing="6" fill="#d4af37">XVIII</text>
<rect x="30" y="272" width="140" height="30" rx="12" fill="#0a0e1a" fill-opacity="0.82"/>
<text x="101" y="293" text-anchor="middle" font-family="Alegreya, Georgia, serif" font-size="15" letter-spacing="2" fill="#f5f0e1">THE MOON</text>
</svg>
