<?xml version="1.0" encoding="UTF-8"?>
<svg xmlns="http://www.w3.org/2000/svg" width="200" height="320" viewBox="0 0 200 320" role="img" aria-labelledby="tar-10-title tar-10-desc">
<title id="tar-10-title">X · Wheel of Fortune — tarot</title>
<desc id="tar-10-desc">Tarot major arcana X, Wheel of Fortune. Keywords: cycles · turning points · change. An archetypal mirror, not a prediction.</desc>
<defs><linearGradient id="tar-10-sky" x1="0" y1="0" x2="0" y2="1"><stop offset="0" stop-color="#1a1440"/><stop offset="1" stop-color="#1a5a5a"/></linearGradient></defs>
<rect width="200" height="320" rx="16" fill="url(#tar-10-sky)"/>
<path d="M50 60 L51.7 64.3 L56 66 L51.7 67.7 L50 72 L48.3 67.7 L44 66 L48.3 64.3 Z" fill="#e8c66a" opacity="0.8"/><path d="M152 55 L153.4 58.6 L157 60 L153.4 61.4 L152 65 L150.6 61.4 L147 60 L150.6 58.6 Z" fill="#e8c66a" opacity="0.7"/>
<path d="M0 277 L28.6 233 L57.1 246 L85.7 236.6 L114.3 231.3 L142.9 253.4 L171.4 237.1 L200 239.2 L200 314 L0 314 Z" fill="#12162e" opacity="0.9"/>
<circle cx="100" cy="148" r="38" fill="none" stroke="#d4af37" stroke-width="3.5"/><line x1="100" y1="148" x2="138" y2="148" stroke="#d4af37" stroke-width="2"/><line x1="100" y1="148" x2="126.9" y2="174.9" stroke="#d4af37" stroke-width="2"/><line x1="100" y1="148" x2="100" y2="186" stroke="#d4af37" stroke-width="2"/><line x1="100" y1="148" x2="73.1" y2="174.9" stroke="#d4af37" stroke-width="2"/><line x1="100" y1="148" x2="62" y2="148" stroke="#d4af37" stroke-width="2"/><line x1="100" y1="148" x2="73.1" y2="121.1" stroke="#d4af37" stroke-width="2"/><line x1="100" y1="148" x2="100" y2="110" stroke="#d4af37" stroke-width="2"/><line x1="100" y1="148" x2="126.9" y2="121.1" stroke="#d4af37" stroke-width="2"/><line x1="144" y1="148" x2="150" y2="148" stroke="#e8c66a" stroke-width="1.6"/><line x1="142.5" y1="159.4" x2="148.3" y2="160.9" stroke="#e8c66a" stroke-width="1.6"/><line x1="138.1" y1="170" x2="143.3" y2="173" stroke="#e8c66a" stroke-width="1.6"/><line x1="131.1" y1="179.1" x2="135.4" y2="183.4" stroke="#e8c66a" stroke-width="1.6"/><line x1="122" y1="186.1" x2="125" y2="191.3" stroke="#e8c66a" stroke-width="1.6"/><line x1="111.4" y1="190.5" x2="112.9" y2="196.3" stroke="#e8c66a" stroke-width="1.6"/><line x1="100" y1="192" x2="100" y2="198" stroke="#e8c66a" stroke-width="1.6"/><line x1="88.6" y1="190.5" x2="87.1" y2="196.3" stroke="#e8c66a" stroke-width="1.6"/><line x1="78" y1="186.1" x2="75" y2="191.3" stroke="#e8c66a" stroke-width="1.6"/><line x1="68.9" y1="179.1" x2="64.6" y2="183.4" stroke="#e8c66a" stroke-width="1.6"/><line x1="61.9" y1="170" x2="56.7" y2="173" stroke="#e8c66a" stroke-width="1.6"/><line x1="57.5" y1="159.4" x2="51.7" y2="160.9" stroke="#e8c66a" stroke-width="1.6"/><line x1="56" y1="148" x2="50" y2="148" stroke="#e8c66a" stroke-width="1.6"/><line x1="57.5" y1="136.6" x2="51.7" y2="135.1" stroke="#e8c66a" stroke-width="1.6"/><line x1="61.9" y1="126" x2="56.7" y2="123" stroke="#e8c66a" stroke-width="1.6"/><line x1="68.9" y1="116.9" x2="64.6" y2="112.6" stroke="#e8c66a" stroke-width="1.6"/><line x1="78" y1="109.9" x2="75" y2="104.7" stroke="#e8c66a" stroke-width="1.6"/><line x1="88.6" y1="105.5" x2="87.1" y2="99.7" stroke="#e8c66a" stroke-width="1.6"/><line x1="100" y1="104" x2="100" y2="98" stroke="#e8c66a" stroke-width="1.6"/><line x1="111.4" y1="105.5" x2="112.9" y2="99.7" stroke="#e8c66a" stroke-width="1.6"/><line x1="122" y1="109.9" x2="125" y2="104.7" stroke="#e8c66a" stroke-width="1.6"/><line x1="131.1" y1="116.9" x2="135.4" y2="112.6" stroke="#e8c66a" stroke-width="1.6"/><line x1="138.1" y1="126" x2="143.3" y2="123" stroke="#e8c66a" stroke-width="1.6"/><line x1="142.5" y1="136.6" x2="148.3" y2="135.1" stroke="#e8c66a" stroke-width="1.6"/><path d="M100 80 L88 102 L112 102 Z" fill="none" stroke="#e8c66a" stroke-width="2.5" stroke-linejoin="round"/><path d="M18 250 C38 234 58 234 78 250 S118 266 138 250 S178 234 198 250" fill="none" stroke="#5eead4" stroke-width="2.5"/>
<rect x="6" y="6" width="188" height="308" rx="16" fill="none" stroke="#d4af37" stroke-width="2.5"/>
<rect x="13" y="13" width="174" height="294" rx="12" fill="none" stroke="#d4af37" stroke-width="1" opacity="0.5"/>
<text x="103" y="36" text-anchor="middle" font-family="Alegreya, Georgia, serif" font-size="20" letter-spacing="6" fill="#d4af37">X</text>
<rect x="30" y="272" width="140" height="30" rx="12" fill="#0a0e1a" fill-opacity="0.82"/>
<text x="101" y="293" text-anchor="middle" font-family="Alegreya, Georgia, serif" font-size="15" letter-spacing="2" fill="#f5f0e1">WHEEL OF FORTUNE</text>
</svg>
